<svg id="Layer_1" data-name="Layer 1" xmlns="http://www.w3.org/2000/svg" viewBox="0 0 143.53 119.04"><defs><style>.cls-1{fill:#131716;}.cls-2,.cls-3{fill:none;}.cls-3{stroke:currentColor;stroke-linecap:round;stroke-linejoin:round;stroke-width:4.5px;}</style></defs><title>bell</title><path class="cls-1" d="M174.58,72a59.52,59.52,0,1,0,0,78.63l39.32-39.31Zm-44.85,89.8a50.48,50.48,0,1,1,50.48-50.48h0a50.48,50.48,0,0,1-50.48,50.43Z" transform="translate(-70.37 -51.79)"/><path id="Path_3643" data-name="Path 3643" class="cls-2" d="M76.75,63.49h95.64v95.65H76.75Z" transform="translate(-70.37 -51.79)"/><path id="Path_3644" data-name="Path 3644" class="cls-3" d="M120.83,81.32a8,8,0,1,1,15.94,0,27.91,27.91,0,0,1,15.94,23.91v12a15.91,15.91,0,0,0,8,12H96.91a15.91,15.91,0,0,0,8-12v-12a27.9,27.9,0,0,1,16-23.91" transform="translate(-70.37 -51.79)"/><path id="Path_3645" data-name="Path 3645" class="cls-3" d="M116.84,129.14v4a12,12,0,1,0,23.91,0v-4" transform="translate(-70.37 -51.79)"/></svg>