<svg id="Layer_1" data-name="Layer 1" xmlns="http://www.w3.org/2000/svg" viewBox="0 0 143.53 119.04"><defs><style>.cls-1{fill:#131716;}.cls-2,.cls-3{fill:none;}.cls-3{stroke:currentColor;stroke-linecap:round;stroke-linejoin:round;stroke-width:6px;}</style></defs><title>bell-active</title><path class="cls-1" d="M104.21,20.21a59.52,59.52,0,1,0,0,78.63l39.32-39.31ZM59.36,110a50.48,50.48,0,1,1,50.48-50.48h0A50.48,50.48,0,0,1,59.36,110Z" transform="translate(0 0)"/><path id="Path_3643" data-name="Path 3643" class="cls-2" d="M6.38,11.7H102v95.65H6.38Z" transform="translate(0 0)"/><path class="cls-3" d="M89.49,30.63a8.33,8.33,0,0,1,0,11.76A29.13,29.13,0,0,1,83.61,71.8l-8.83,8.81a16.65,16.65,0,0,0-2.94,14.71l-47-47a16.66,16.66,0,0,0,14.7-2.94l8.82-8.83a29.1,29.1,0,0,1,29.41-5.88A8.31,8.31,0,0,1,89.49,30.63Z" transform="translate(0 0)"/><path class="cls-3" d="M39.5,63l-2.94,2.94A12.48,12.48,0,0,0,54.2,83.56l2.94-2.94" transform="translate(0 0)"/></svg>