<svg id="Layer_1" data-name="Layer 1" xmlns="http://www.w3.org/2000/svg" viewBox="0 0 35.09 35.09"><defs><style>.cls-1,.cls-2,.cls-3{fill:none;}.cls-2,.cls-3{stroke:currentColor;stroke-linecap:round;stroke-width:2px;}.cls-3{stroke-linejoin:round;}</style></defs><title>bell-circle</title><g id="Group_235" data-name="Group 235"><g id="Ellipse_13" data-name="Ellipse 13"><circle class="cls-1" cx="17.55" cy="17.55" r="17.55"/><circle class="cls-2" cx="17.55" cy="17.55" r="16.55"/></g><path class="cls-3" d="M26.44,8.76a2.38,2.38,0,0,1,0,3.37,8.31,8.31,0,0,1-1.68,8.4l-2.52,2.52a4.73,4.73,0,0,0-.84,4.2L8,13.81A4.78,4.78,0,0,0,12.16,13l2.52-2.53a8.33,8.33,0,0,1,8.4-1.68A2.39,2.39,0,0,1,26.44,8.76Z" transform="translate(0 0)"/><path class="cls-3" d="M12.16,18l-.84.84a3.56,3.56,0,0,0,5,5l.84-.84" transform="translate(0 0)"/></g></svg>