<svg xmlns="http://www.w3.org/2000/svg" width="35.09" height="35.09" viewBox="0 0 35.09 35.09">
  <g id="Group_235" data-name="Group 235" transform="translate(-15188 17486)">
    <g id="Ellipse_13" data-name="Ellipse 13" transform="translate(15188 -17486)" fill="none" stroke="currentColor" stroke-linecap="round" stroke-width="2">
      <ellipse cx="17.545" cy="17.545" rx="17.545" ry="17.545" stroke="none"/>
      <ellipse cx="17.545" cy="17.545" rx="16.545" ry="16.545" fill="none"/>
    </g>
    <g id="bell_1_" data-name="bell (1)" transform="translate(15191.87 -17482.129)">
      <path id="Path_3643" data-name="Path 3643" d="M0,0H27.349V27.349H0Z" fill="none"/>
      <path id="Path_3644" data-name="Path 3644" d="M10.837,5.279a2.279,2.279,0,1,1,4.558,0,7.977,7.977,0,0,1,4.558,6.837v3.419a4.558,4.558,0,0,0,2.279,3.419H4a4.558,4.558,0,0,0,2.279-3.419V12.116a7.977,7.977,0,0,1,4.558-6.837" transform="translate(0.558 0.419)" fill="none" stroke="currentColor" stroke-linecap="round" stroke-linejoin="round" stroke-width="1.5"/>
      <path id="Path_3645" data-name="Path 3645" d="M9,17v1.14a3.419,3.419,0,1,0,6.837,0V17" transform="translate(1.256 2.372)" fill="none" stroke="currentColor" stroke-linecap="round" stroke-linejoin="round" stroke-width="1.5"/>
    </g>
  </g>
</svg>
