<svg id="Layer_1" data-name="Layer 1" xmlns="http://www.w3.org/2000/svg" viewBox="0 0 143.53 119.04"><defs><style>.cls-1{fill:#131716;}</style></defs><title>refresh</title><path class="cls-1" d="M174.58,72a59.52,59.52,0,1,0,0,78.63l39.32-39.31Zm-44.85,89.8a50.48,50.48,0,1,1,50.48-50.48h0a50.48,50.48,0,0,1-50.48,50.43Z" transform="translate(-70.37 -51.79)"/><path id="process" d="M112.42,120.06a3.57,3.57,0,0,0-3.57,3.58h0V130a28.5,28.5,0,0,1-7.15-18.88,25.61,25.61,0,0,1,.19-3.15,3.58,3.58,0,0,0-7.1-.86h0a29.82,29.82,0,0,0-.24,4,35.6,35.6,0,0,0,8.64,23.24H98.12a3.58,3.58,0,0,0,0,7.15h14.3a3.53,3.53,0,0,0,2.84-1.51l.13-.15a.61.61,0,0,0,0-.12,3.25,3.25,0,0,0,.38-.92,3.47,3.47,0,0,0,.11-.56c0-.11.06-.2.06-.31v-14.3a3.57,3.57,0,0,0-3.57-3.58Zm5.36-30.38h-6.37a28.55,28.55,0,0,1,18.88-7.15,25.61,25.61,0,0,1,3.15.19,3.58,3.58,0,0,0,.86-7.1,33.58,33.58,0,0,0-4-.24A35.63,35.63,0,0,0,107.06,84V79a3.58,3.58,0,1,0-7.15,0v14.3a3.34,3.34,0,0,0,.14.7h0a3.42,3.42,0,0,0,.51,1.23l0,.06a3.46,3.46,0,0,0,.87.88s.06.07.1.1.11,0,.16.08a4.12,4.12,0,0,0,.64.3,3.81,3.81,0,0,0,.94.18c.06,0,.11,0,.18,0h14.3a3.58,3.58,0,0,0,0-7.15Zm42.75,38.62a3.23,3.23,0,0,0-.5-1.23l0-.06a3.17,3.17,0,0,0-.87-.88s-.06-.08-.1-.1a.69.69,0,0,0-.13,0,4,4,0,0,0-1.46-.49,3.23,3.23,0,0,0-.33-.06H142.8a3.58,3.58,0,0,0,0,7.15h6.37a28.52,28.52,0,0,1-18.88,7.14,23.53,23.53,0,0,1-3.14-.19,3.58,3.58,0,0,0-.86,7.1,33.42,33.42,0,0,0,4,.24,35.6,35.6,0,0,0,23.24-8.64v5.07a3.57,3.57,0,0,0,7.14,0V129a3.22,3.22,0,0,0-.14-.7Zm1.93-40.4a3.58,3.58,0,1,0,0-7.15h-14.3a3.38,3.38,0,0,0-.69.14h0a3.62,3.62,0,0,0-1.22.5l-.07,0a3.27,3.27,0,0,0-.87.87s-.08.06-.1.1a.61.61,0,0,0-.05.12,4.1,4.1,0,0,0-.49,1.48c0,.11-.07.2-.07.31v14.3a3.58,3.58,0,1,0,7.15,0V92.25a28.48,28.48,0,0,1,7.15,18.88,25.33,25.33,0,0,1-.19,3.14,3.58,3.58,0,0,0,3.12,4,3.25,3.25,0,0,0,.44,0,3.59,3.59,0,0,0,3.54-3.15,33.42,33.42,0,0,0,.24-4,35.57,35.57,0,0,0-8.64-23.23Z" transform="translate(-70.37 -51.79)"/></svg>