<svg xmlns="http://www.w3.org/2000/svg" width="35.09" height="35.09" viewBox="0 0 35.09 35.09">
  <g id="Group_238" data-name="Group 238" transform="translate(-15188 17377)">
    <path id="process" d="M6.992,14.5a1,1,0,0,0-1,1v1.782a7.972,7.972,0,0,1-2-5.282,7.291,7.291,0,0,1,.053-.88,1,1,0,1,0-1.985-.24A9.173,9.173,0,0,0,1.992,12a9.964,9.964,0,0,0,2.417,6.5H2.992a1,1,0,0,0,0,2h4a.982.982,0,0,0,.794-.422c.012-.015.027-.027.037-.043s.007-.022.013-.032a.966.966,0,0,0,.106-.258.952.952,0,0,0,.031-.156c0-.031.018-.057.018-.089v-4a1,1,0,0,0-1-1ZM8.492,6H6.709a7.974,7.974,0,0,1,5.282-2,7.075,7.075,0,0,1,.879.053,1,1,0,1,0,.241-1.986A9.227,9.227,0,0,0,11.992,2a9.964,9.964,0,0,0-6.5,2.417V3a1,1,0,0,0-2,0V7a.954.954,0,0,0,.039.195h0a.969.969,0,0,0,.141.345l.011.017a.973.973,0,0,0,.244.246c.011.008.016.02.028.028s.03.012.045.021a.958.958,0,0,0,.179.084.988.988,0,0,0,.262.053c.017,0,.032.01.049.01h4a1,1,0,0,0,0-2Zm11.96,10.8a.967.967,0,0,0-.141-.345l-.011-.017a.973.973,0,0,0-.245-.246c-.011-.008-.016-.02-.028-.028s-.024-.007-.035-.014a1.154,1.154,0,0,0-.41-.135c-.032,0-.059-.018-.091-.018h-4a1,1,0,1,0,0,2h1.782a7.973,7.973,0,0,1-5.282,2,7.075,7.075,0,0,1-.879-.054,1,1,0,1,0-.241,1.986A9.366,9.366,0,0,0,11.992,22a9.964,9.964,0,0,0,6.5-2.417V21a1,1,0,0,0,2,0V17a.953.953,0,0,0-.039-.195Zm.539-11.3a1,1,0,0,0,0-2h-4a.952.952,0,0,0-.192.039h-.007a.968.968,0,0,0-.341.14l-.02.013a.974.974,0,0,0-.245.244c-.008.011-.02.016-.027.027s-.007.023-.014.034a1.146,1.146,0,0,0-.136.413c0,.031-.018.058-.018.089v4a1,1,0,0,0,2,0V6.719a7.975,7.975,0,0,1,2,5.283,7.289,7.289,0,0,1-.053.88A1,1,0,0,0,20.811,14a1.029,1.029,0,0,0,.122.007,1,1,0,0,0,.991-.88A9.174,9.174,0,0,0,21.992,12a9.964,9.964,0,0,0-2.417-6.5Z" transform="translate(15194.009 -17371.002)"/>
    <g id="Ellipse_17" data-name="Ellipse 17" transform="translate(15188 -17377)" fill="none" stroke="currentColor" stroke-linecap="round" stroke-width="2">
      <ellipse cx="17.545" cy="17.545" rx="17.545" ry="17.545" stroke="none"/>
      <ellipse cx="17.545" cy="17.545" rx="16.545" ry="16.545" fill="none"/>
    </g>
  </g>
</svg>
